<?xml version="1.0" encoding="iso-8859-1"?>
<!-- Generator: Adobe Illustrator 16.0.0, SVG Export Plug-In . SVG Version: 6.00 Build 0)  -->
<!DOCTYPE svg PUBLIC "-//W3C//DTD SVG 1.1//EN" "http://www.w3.org/Graphics/SVG/1.1/DTD/svg11.dtd">
<svg version="1.1" id="Capa_1" xmlns="http://www.w3.org/2000/svg" xmlns:xlink="http://www.w3.org/1999/xlink" x="0px" y="0px"
	 width="47.003px" height="47.003px" viewBox="0 0 47.003 47.003" style="enable-background:new 0 0 47.003 47.003;"
	 xml:space="preserve">
<g>
	<path d="M43.56,41.369L31.194,29.007c-0.292-0.293-0.442-0.858-0.332-1.258l0.737-2.672c0.11-0.399-0.04-0.964-0.331-1.258
		L27.06,19.61l0.914-1.259c1.308-1.808,0.89-4.228-0.886-5.517c-0.038,0.107-0.06,0.214-0.098,0.314
		c-1.654,4.481-4.938,7.609-7.982,7.61c-0.504,0-0.996-0.085-1.457-0.256c-0.063-0.025-0.118-0.067-0.179-0.092
		c-0.646,0.646-1.327,1.261-1.884,1.684l-2.306,1.769c-1.102,0.845-2.478,0.708-3.056-0.306L7.434,18.86
		c-0.582-1.014-0.248-2.646,0.736-3.629l3.987-3.989c0.981-0.982,2.617-1.317,3.628-0.735l4.701,2.688
		c1.013,0.585,1.15,1.956,0.305,3.062l-1.139,1.486c-0.525,0.119-1.032,0.11-1.493-0.062c-1.624-0.599-2.408-2.916-2.188-5.718
		l-0.769-0.441c-0.229-0.132-0.591-0.137-0.963-0.068c-0.404,3.795,0.808,6.95,3.31,7.875c0.461,0.174,0.953,0.26,1.458,0.259
		c3.044,0.001,6.327-3.127,7.982-7.608c0.912-2.468,1.207-5.018,0.826-7.166c-0.41-2.324-1.552-3.941-3.218-4.559
		C24.137,0.086,23.646,0.001,23.14,0c-2.441,0.001-5.031,2.012-6.817,5.117c0.604,0.118,1.173,0.321,1.697,0.6
		c1.448-2.369,3.418-3.959,5.121-3.958c0.297-0.001,0.583,0.05,0.848,0.147c1.058,0.389,1.8,1.529,2.097,3.211
		c0.327,1.849,0.063,4.07-0.743,6.253c-0.034,0.089-0.071,0.173-0.107,0.263l-7.476-4.731c-1.963-1.24-4.909-0.914-6.55,0.728
		l-6.654,6.65c-1.64,1.639-1.967,4.59-0.727,6.554L9.6,29.955c1.239,1.961,3.794,2.451,5.677,1.093l1.262-0.914h0.001l2.716,2.714
		c0.293,0.293,0.857,0.443,1.258,0.332l2.672-0.738c0.399-0.108,0.965,0.039,1.258,0.332l0.925,0.926
		c0.293,0.293,0.853,0.424,1.244,0.292l0.428-0.144c0.393-0.134,0.953-0.003,1.246,0.289l0.577,0.579
		c0.293,0.293,0.362,0.825,0.154,1.183l-0.155,0.267c-0.208,0.358-0.139,0.892,0.152,1.183l0.002,0.004
		c0.292,0.293,0.854,0.424,1.246,0.291l0.428-0.146c0.393-0.133,0.952-0.003,1.246,0.29l0.578,0.58
		c0.293,0.293,0.362,0.825,0.152,1.182l-0.154,0.269c-0.209,0.354-0.14,0.888,0.153,1.181l5.633,5.638
		c0.293,0.293,0.858,0.441,1.258,0.332l2.673-0.738c0.4-0.109,0.816-0.525,0.926-0.924l0.737-2.676
		C44.002,42.229,43.852,41.663,43.56,41.369z"/>
</g>
<g>
</g>
<g>
</g>
<g>
</g>
<g>
</g>
<g>
</g>
<g>
</g>
<g>
</g>
<g>
</g>
<g>
</g>
<g>
</g>
<g>
</g>
<g>
</g>
<g>
</g>
<g>
</g>
<g>
</g>
</svg>
